<svg width="446" height="48" viewBox="0 0 446 48" fill="none" xmlns="http://www.w3.org/2000/svg">
<mask id="path-1-outside-1_314_4131" maskUnits="userSpaceOnUse" x="0" y="0.755371" width="446" height="47" fill="black">
<rect fill="white" y="0.755371" width="446" height="47"/>
<path d="M22.4438 46.7554C18.2522 46.7554 14.5163 45.7844 11.2359 43.8424C7.97582 41.9003 5.45481 39.22 3.67288 35.8012C1.89096 32.3825 1 28.5288 1 24.2402C1 19.9718 1.89096 16.1283 3.67288 12.7095C5.45481 9.29077 7.9657 6.61039 11.2056 4.66839C14.4454 2.72638 18.1308 1.75537 22.2616 1.75537C25.9672 1.75537 29.3488 2.55443 32.4064 4.15254C35.4842 5.73042 38.1369 8.01633 40.3643 11.0103L36.6283 14.166C34.9881 11.7992 32.9025 9.96845 30.3713 8.67378C27.8402 7.37911 25.1369 6.73177 22.2616 6.73177C17.5435 6.73177 13.6861 8.38046 10.6892 11.6778C7.71258 14.955 6.22427 19.1424 6.22427 24.2402C6.22427 27.6185 6.89249 30.6428 8.22893 33.313C9.58562 35.9631 11.4992 38.0366 13.9696 39.5335C16.4399 41.0305 19.2647 41.779 22.4438 41.779C25.5014 41.779 28.3464 41.0912 30.9788 39.7156C33.6314 38.34 35.8487 36.398 37.6306 33.8896L41.3666 36.9846C39.038 40.1809 36.2638 42.6084 33.0442 44.2672C29.8449 45.926 26.3114 46.7554 22.4438 46.7554Z"/>
<path d="M43.7054 45.9968L61.3221 2.48362H67.3968L84.8313 45.9968H79.4856L75.3547 35.6798H53.2123L49.0511 45.9968H43.7054ZM54.974 31.0069H73.6234L64.2987 7.85449L54.974 31.0069Z"/>
<path d="M112.38 30.5821L97.5275 11.253V45.9968H92.364V2.48362H96.9504L113.747 24.483L130.604 2.48362H135.161V45.9968H130.058V11.253L115.114 30.5821H112.38Z"/>
<path d="M147.644 45.9968V2.48362H163.074C167.731 2.48362 171.406 3.7783 174.1 6.36764C176.813 8.95699 178.17 12.4769 178.17 16.9273C178.17 21.3373 176.813 24.837 174.1 27.4263C171.406 29.9954 167.731 31.28 163.074 31.28H152.808V45.9968H147.644ZM152.747 26.425H162.679C165.959 26.425 168.511 25.5956 170.333 23.9368C172.156 22.2577 173.067 19.9213 173.067 16.9273C173.067 13.8727 172.156 11.516 170.333 9.85719C168.531 8.17816 165.98 7.33865 162.679 7.33865H152.747V26.425Z"/>
<path d="M202.651 46.7554C197.487 46.7554 193.316 45.1674 190.137 41.9914C186.978 38.8154 185.399 34.5571 185.399 29.2166V2.48362H190.501V28.9132C190.501 33.0197 191.564 36.1957 193.691 38.4411C195.837 40.6664 198.824 41.779 202.651 41.779C206.437 41.779 209.394 40.6664 211.52 38.4411C213.646 36.1957 214.709 33.0197 214.709 28.9132V2.48362H219.873V29.2166C219.873 34.5369 218.283 38.7952 215.104 41.9914C211.945 45.1674 207.794 46.7554 202.651 46.7554Z"/>
<path d="M243.929 46.4216C237.611 46.4216 232.194 44.4189 227.679 40.4135L230.412 36.3778C232.457 38.1579 234.574 39.4627 236.76 40.2921C238.968 41.1215 241.397 41.5362 244.05 41.5362C247.27 41.5362 249.811 40.9192 251.674 39.6852C253.557 38.4513 254.499 36.7823 254.499 34.6785C254.499 32.777 253.587 31.1384 251.765 29.7628C249.943 28.367 246.976 27.0824 242.866 25.9091C238.087 24.5133 234.604 22.814 232.417 20.8113C230.25 18.7884 229.167 16.2699 229.167 13.2557C229.167 9.93811 230.493 7.24762 233.146 5.18423C235.799 3.10062 239.261 2.05881 243.534 2.05881C246.288 2.05881 248.971 2.58477 251.583 3.63669C254.195 4.66839 256.554 6.15524 258.66 8.09725L255.805 12.0116C254.144 10.4135 252.231 9.17951 250.064 8.30965C247.918 7.41957 245.7 6.97452 243.412 6.97452C240.679 6.97452 238.492 7.53083 236.852 8.64344C235.211 9.73582 234.391 11.1923 234.391 13.013C234.391 14.874 235.201 16.4317 236.821 17.6859C238.461 18.9401 241.387 20.2146 245.599 21.5092C250.479 22.9658 254.063 24.7459 256.351 26.8498C258.64 28.9334 259.784 31.5025 259.784 34.5571C259.784 38.0366 258.305 40.8889 255.349 43.1141C252.393 45.3191 248.586 46.4216 243.929 46.4216Z"/>
<path d="M290.734 45.9968V7.39934H276.611V2.48362H309.961V7.39934H295.837V45.9968H290.734Z"/>
<path d="M333.622 46.7554C329.37 46.7554 325.553 45.8046 322.171 43.903C318.81 41.9813 316.188 39.311 314.304 35.8923C312.421 32.4533 311.48 28.5693 311.48 24.2402C311.48 19.9111 312.421 16.0372 314.304 12.6185C316.208 9.17951 318.84 6.50925 322.202 4.6077C325.563 2.70615 329.37 1.75537 333.622 1.75537C337.854 1.75537 341.651 2.71626 345.012 4.63804C348.394 6.53959 351.026 9.20986 352.909 12.6488C354.813 16.0676 355.764 19.9314 355.764 24.2402C355.764 28.549 354.813 32.4229 352.909 35.8619C351.026 39.2807 348.394 41.9509 345.012 43.8727C341.651 45.7945 337.854 46.7554 333.622 46.7554ZM316.704 24.2402C316.704 29.3784 318.273 33.5861 321.412 36.8633C324.571 40.1404 328.641 41.779 333.622 41.779C338.603 41.779 342.663 40.1404 345.802 36.8633C348.961 33.5861 350.54 29.3784 350.54 24.2402C350.54 19.102 348.961 14.9044 345.802 11.6475C342.663 8.37034 338.603 6.73177 333.622 6.73177C328.661 6.73177 324.601 8.37034 321.442 11.6475C318.283 14.9246 316.704 19.1222 316.704 24.2402Z"/>
<path d="M382.098 46.7554C376.935 46.7554 372.764 45.1674 369.584 41.9914C366.426 38.8154 364.846 34.5571 364.846 29.2166V2.48362H369.949V28.9132C369.949 33.0197 371.012 36.1957 373.138 38.4411C375.285 40.6664 378.271 41.779 382.098 41.779C385.885 41.779 388.841 40.6664 390.968 38.4411C393.094 36.1957 394.157 33.0197 394.157 28.9132V2.48362H399.32V29.2166C399.32 34.5369 397.731 38.7952 394.552 41.9914C391.393 45.1674 387.242 46.7554 382.098 46.7554Z"/>
<path d="M411.227 45.9968V2.48362H428.327C432.64 2.48362 436.143 3.76818 438.836 6.3373C441.53 8.90642 442.876 12.1836 442.876 16.1687C442.876 19.3649 441.975 22.1465 440.173 24.5133C438.391 26.8599 435.961 28.4479 432.883 29.2773L444 45.9968H438.168L427.568 29.8538H416.39V45.9968H411.227ZM416.33 25.1809H428.145C431.142 25.1809 433.481 24.3818 435.161 22.7837C436.862 21.1856 437.713 19.0008 437.713 16.2294C437.713 13.4782 436.862 11.3137 435.161 9.73582C433.481 8.1377 431.142 7.33865 428.145 7.33865H416.33V25.1809Z"/>
</mask>
<path d="M22.4438 46.7554C18.2522 46.7554 14.5163 45.7844 11.2359 43.8424C7.97582 41.9003 5.45481 39.22 3.67288 35.8012C1.89096 32.3825 1 28.5288 1 24.2402C1 19.9718 1.89096 16.1283 3.67288 12.7095C5.45481 9.29077 7.9657 6.61039 11.2056 4.66839C14.4454 2.72638 18.1308 1.75537 22.2616 1.75537C25.9672 1.75537 29.3488 2.55443 32.4064 4.15254C35.4842 5.73042 38.1369 8.01633 40.3643 11.0103L36.6283 14.166C34.9881 11.7992 32.9025 9.96845 30.3713 8.67378C27.8402 7.37911 25.1369 6.73177 22.2616 6.73177C17.5435 6.73177 13.6861 8.38046 10.6892 11.6778C7.71258 14.955 6.22427 19.1424 6.22427 24.2402C6.22427 27.6185 6.89249 30.6428 8.22893 33.313C9.58562 35.9631 11.4992 38.0366 13.9696 39.5335C16.4399 41.0305 19.2647 41.779 22.4438 41.779C25.5014 41.779 28.3464 41.0912 30.9788 39.7156C33.6314 38.34 35.8487 36.398 37.6306 33.8896L41.3666 36.9846C39.038 40.1809 36.2638 42.6084 33.0442 44.2672C29.8449 45.926 26.3114 46.7554 22.4438 46.7554Z" fill="white"/>
<path d="M43.7054 45.9968L61.3221 2.48362H67.3968L84.8313 45.9968H79.4856L75.3547 35.6798H53.2123L49.0511 45.9968H43.7054ZM54.974 31.0069H73.6234L64.2987 7.85449L54.974 31.0069Z" fill="white"/>
<path d="M112.38 30.5821L97.5275 11.253V45.9968H92.364V2.48362H96.9504L113.747 24.483L130.604 2.48362H135.161V45.9968H130.058V11.253L115.114 30.5821H112.38Z" fill="white"/>
<path d="M147.644 45.9968V2.48362H163.074C167.731 2.48362 171.406 3.7783 174.1 6.36764C176.813 8.95699 178.17 12.4769 178.17 16.9273C178.17 21.3373 176.813 24.837 174.1 27.4263C171.406 29.9954 167.731 31.28 163.074 31.28H152.808V45.9968H147.644ZM152.747 26.425H162.679C165.959 26.425 168.511 25.5956 170.333 23.9368C172.156 22.2577 173.067 19.9213 173.067 16.9273C173.067 13.8727 172.156 11.516 170.333 9.85719C168.531 8.17816 165.98 7.33865 162.679 7.33865H152.747V26.425Z" fill="white"/>
<path d="M202.651 46.7554C197.487 46.7554 193.316 45.1674 190.137 41.9914C186.978 38.8154 185.399 34.5571 185.399 29.2166V2.48362H190.501V28.9132C190.501 33.0197 191.564 36.1957 193.691 38.4411C195.837 40.6664 198.824 41.779 202.651 41.779C206.437 41.779 209.394 40.6664 211.52 38.4411C213.646 36.1957 214.709 33.0197 214.709 28.9132V2.48362H219.873V29.2166C219.873 34.5369 218.283 38.7952 215.104 41.9914C211.945 45.1674 207.794 46.7554 202.651 46.7554Z" fill="white"/>
<path d="M243.929 46.4216C237.611 46.4216 232.194 44.4189 227.679 40.4135L230.412 36.3778C232.457 38.1579 234.574 39.4627 236.76 40.2921C238.968 41.1215 241.397 41.5362 244.05 41.5362C247.27 41.5362 249.811 40.9192 251.674 39.6852C253.557 38.4513 254.499 36.7823 254.499 34.6785C254.499 32.777 253.587 31.1384 251.765 29.7628C249.943 28.367 246.976 27.0824 242.866 25.9091C238.087 24.5133 234.604 22.814 232.417 20.8113C230.25 18.7884 229.167 16.2699 229.167 13.2557C229.167 9.93811 230.493 7.24762 233.146 5.18423C235.799 3.10062 239.261 2.05881 243.534 2.05881C246.288 2.05881 248.971 2.58477 251.583 3.63669C254.195 4.66839 256.554 6.15524 258.66 8.09725L255.805 12.0116C254.144 10.4135 252.231 9.17951 250.064 8.30965C247.918 7.41957 245.7 6.97452 243.412 6.97452C240.679 6.97452 238.492 7.53083 236.852 8.64344C235.211 9.73582 234.391 11.1923 234.391 13.013C234.391 14.874 235.201 16.4317 236.821 17.6859C238.461 18.9401 241.387 20.2146 245.599 21.5092C250.479 22.9658 254.063 24.7459 256.351 26.8498C258.64 28.9334 259.784 31.5025 259.784 34.5571C259.784 38.0366 258.305 40.8889 255.349 43.1141C252.393 45.3191 248.586 46.4216 243.929 46.4216Z" fill="white"/>
<path d="M290.734 45.9968V7.39934H276.611V2.48362H309.961V7.39934H295.837V45.9968H290.734Z" fill="white"/>
<path d="M333.622 46.7554C329.37 46.7554 325.553 45.8046 322.171 43.903C318.81 41.9813 316.188 39.311 314.304 35.8923C312.421 32.4533 311.48 28.5693 311.48 24.2402C311.48 19.9111 312.421 16.0372 314.304 12.6185C316.208 9.17951 318.84 6.50925 322.202 4.6077C325.563 2.70615 329.37 1.75537 333.622 1.75537C337.854 1.75537 341.651 2.71626 345.012 4.63804C348.394 6.53959 351.026 9.20986 352.909 12.6488C354.813 16.0676 355.764 19.9314 355.764 24.2402C355.764 28.549 354.813 32.4229 352.909 35.8619C351.026 39.2807 348.394 41.9509 345.012 43.8727C341.651 45.7945 337.854 46.7554 333.622 46.7554ZM316.704 24.2402C316.704 29.3784 318.273 33.5861 321.412 36.8633C324.571 40.1404 328.641 41.779 333.622 41.779C338.603 41.779 342.663 40.1404 345.802 36.8633C348.961 33.5861 350.54 29.3784 350.54 24.2402C350.54 19.102 348.961 14.9044 345.802 11.6475C342.663 8.37034 338.603 6.73177 333.622 6.73177C328.661 6.73177 324.601 8.37034 321.442 11.6475C318.283 14.9246 316.704 19.1222 316.704 24.2402Z" fill="white"/>
<path d="M382.098 46.7554C376.935 46.7554 372.764 45.1674 369.584 41.9914C366.426 38.8154 364.846 34.5571 364.846 29.2166V2.48362H369.949V28.9132C369.949 33.0197 371.012 36.1957 373.138 38.4411C375.285 40.6664 378.271 41.779 382.098 41.779C385.885 41.779 388.841 40.6664 390.968 38.4411C393.094 36.1957 394.157 33.0197 394.157 28.9132V2.48362H399.32V29.2166C399.32 34.5369 397.731 38.7952 394.552 41.9914C391.393 45.1674 387.242 46.7554 382.098 46.7554Z" fill="white"/>
<path d="M411.227 45.9968V2.48362H428.327C432.64 2.48362 436.143 3.76818 438.836 6.3373C441.53 8.90642 442.876 12.1836 442.876 16.1687C442.876 19.3649 441.975 22.1465 440.173 24.5133C438.391 26.8599 435.961 28.4479 432.883 29.2773L444 45.9968H438.168L427.568 29.8538H416.39V45.9968H411.227ZM416.33 25.1809H428.145C431.142 25.1809 433.481 24.3818 435.161 22.7837C436.862 21.1856 437.713 19.0008 437.713 16.2294C437.713 13.4782 436.862 11.3137 435.161 9.73582C433.481 8.1377 431.142 7.33865 428.145 7.33865H416.33V25.1809Z" fill="white"/>
<path d="M22.4438 46.7554C18.2522 46.7554 14.5163 45.7844 11.2359 43.8424C7.97582 41.9003 5.45481 39.22 3.67288 35.8012C1.89096 32.3825 1 28.5288 1 24.2402C1 19.9718 1.89096 16.1283 3.67288 12.7095C5.45481 9.29077 7.9657 6.61039 11.2056 4.66839C14.4454 2.72638 18.1308 1.75537 22.2616 1.75537C25.9672 1.75537 29.3488 2.55443 32.4064 4.15254C35.4842 5.73042 38.1369 8.01633 40.3643 11.0103L36.6283 14.166C34.9881 11.7992 32.9025 9.96845 30.3713 8.67378C27.8402 7.37911 25.1369 6.73177 22.2616 6.73177C17.5435 6.73177 13.6861 8.38046 10.6892 11.6778C7.71258 14.955 6.22427 19.1424 6.22427 24.2402C6.22427 27.6185 6.89249 30.6428 8.22893 33.313C9.58562 35.9631 11.4992 38.0366 13.9696 39.5335C16.4399 41.0305 19.2647 41.779 22.4438 41.779C25.5014 41.779 28.3464 41.0912 30.9788 39.7156C33.6314 38.34 35.8487 36.398 37.6306 33.8896L41.3666 36.9846C39.038 40.1809 36.2638 42.6084 33.0442 44.2672C29.8449 45.926 26.3114 46.7554 22.4438 46.7554Z" stroke="white" stroke-width="2" mask="url(#path-1-outside-1_314_4131)"/>
<path d="M43.7054 45.9968L61.3221 2.48362H67.3968L84.8313 45.9968H79.4856L75.3547 35.6798H53.2123L49.0511 45.9968H43.7054ZM54.974 31.0069H73.6234L64.2987 7.85449L54.974 31.0069Z" stroke="white" stroke-width="2" mask="url(#path-1-outside-1_314_4131)"/>
<path d="M112.38 30.5821L97.5275 11.253V45.9968H92.364V2.48362H96.9504L113.747 24.483L130.604 2.48362H135.161V45.9968H130.058V11.253L115.114 30.5821H112.38Z" stroke="white" stroke-width="2" mask="url(#path-1-outside-1_314_4131)"/>
<path d="M147.644 45.9968V2.48362H163.074C167.731 2.48362 171.406 3.7783 174.1 6.36764C176.813 8.95699 178.17 12.4769 178.17 16.9273C178.17 21.3373 176.813 24.837 174.1 27.4263C171.406 29.9954 167.731 31.28 163.074 31.28H152.808V45.9968H147.644ZM152.747 26.425H162.679C165.959 26.425 168.511 25.5956 170.333 23.9368C172.156 22.2577 173.067 19.9213 173.067 16.9273C173.067 13.8727 172.156 11.516 170.333 9.85719C168.531 8.17816 165.98 7.33865 162.679 7.33865H152.747V26.425Z" stroke="white" stroke-width="2" mask="url(#path-1-outside-1_314_4131)"/>
<path d="M202.651 46.7554C197.487 46.7554 193.316 45.1674 190.137 41.9914C186.978 38.8154 185.399 34.5571 185.399 29.2166V2.48362H190.501V28.9132C190.501 33.0197 191.564 36.1957 193.691 38.4411C195.837 40.6664 198.824 41.779 202.651 41.779C206.437 41.779 209.394 40.6664 211.52 38.4411C213.646 36.1957 214.709 33.0197 214.709 28.9132V2.48362H219.873V29.2166C219.873 34.5369 218.283 38.7952 215.104 41.9914C211.945 45.1674 207.794 46.7554 202.651 46.7554Z" stroke="white" stroke-width="2" mask="url(#path-1-outside-1_314_4131)"/>
<path d="M243.929 46.4216C237.611 46.4216 232.194 44.4189 227.679 40.4135L230.412 36.3778C232.457 38.1579 234.574 39.4627 236.76 40.2921C238.968 41.1215 241.397 41.5362 244.05 41.5362C247.27 41.5362 249.811 40.9192 251.674 39.6852C253.557 38.4513 254.499 36.7823 254.499 34.6785C254.499 32.777 253.587 31.1384 251.765 29.7628C249.943 28.367 246.976 27.0824 242.866 25.9091C238.087 24.5133 234.604 22.814 232.417 20.8113C230.25 18.7884 229.167 16.2699 229.167 13.2557C229.167 9.93811 230.493 7.24762 233.146 5.18423C235.799 3.10062 239.261 2.05881 243.534 2.05881C246.288 2.05881 248.971 2.58477 251.583 3.63669C254.195 4.66839 256.554 6.15524 258.66 8.09725L255.805 12.0116C254.144 10.4135 252.231 9.17951 250.064 8.30965C247.918 7.41957 245.7 6.97452 243.412 6.97452C240.679 6.97452 238.492 7.53083 236.852 8.64344C235.211 9.73582 234.391 11.1923 234.391 13.013C234.391 14.874 235.201 16.4317 236.821 17.6859C238.461 18.9401 241.387 20.2146 245.599 21.5092C250.479 22.9658 254.063 24.7459 256.351 26.8498C258.64 28.9334 259.784 31.5025 259.784 34.5571C259.784 38.0366 258.305 40.8889 255.349 43.1141C252.393 45.3191 248.586 46.4216 243.929 46.4216Z" stroke="white" stroke-width="2" mask="url(#path-1-outside-1_314_4131)"/>
<path d="M290.734 45.9968V7.39934H276.611V2.48362H309.961V7.39934H295.837V45.9968H290.734Z" stroke="white" stroke-width="2" mask="url(#path-1-outside-1_314_4131)"/>
<path d="M333.622 46.7554C329.37 46.7554 325.553 45.8046 322.171 43.903C318.81 41.9813 316.188 39.311 314.304 35.8923C312.421 32.4533 311.48 28.5693 311.48 24.2402C311.48 19.9111 312.421 16.0372 314.304 12.6185C316.208 9.17951 318.84 6.50925 322.202 4.6077C325.563 2.70615 329.37 1.75537 333.622 1.75537C337.854 1.75537 341.651 2.71626 345.012 4.63804C348.394 6.53959 351.026 9.20986 352.909 12.6488C354.813 16.0676 355.764 19.9314 355.764 24.2402C355.764 28.549 354.813 32.4229 352.909 35.8619C351.026 39.2807 348.394 41.9509 345.012 43.8727C341.651 45.7945 337.854 46.7554 333.622 46.7554ZM316.704 24.2402C316.704 29.3784 318.273 33.5861 321.412 36.8633C324.571 40.1404 328.641 41.779 333.622 41.779C338.603 41.779 342.663 40.1404 345.802 36.8633C348.961 33.5861 350.54 29.3784 350.54 24.2402C350.54 19.102 348.961 14.9044 345.802 11.6475C342.663 8.37034 338.603 6.73177 333.622 6.73177C328.661 6.73177 324.601 8.37034 321.442 11.6475C318.283 14.9246 316.704 19.1222 316.704 24.2402Z" stroke="white" stroke-width="2" mask="url(#path-1-outside-1_314_4131)"/>
<path d="M382.098 46.7554C376.935 46.7554 372.764 45.1674 369.584 41.9914C366.426 38.8154 364.846 34.5571 364.846 29.2166V2.48362H369.949V28.9132C369.949 33.0197 371.012 36.1957 373.138 38.4411C375.285 40.6664 378.271 41.779 382.098 41.779C385.885 41.779 388.841 40.6664 390.968 38.4411C393.094 36.1957 394.157 33.0197 394.157 28.9132V2.48362H399.32V29.2166C399.32 34.5369 397.731 38.7952 394.552 41.9914C391.393 45.1674 387.242 46.7554 382.098 46.7554Z" stroke="white" stroke-width="2" mask="url(#path-1-outside-1_314_4131)"/>
<path d="M411.227 45.9968V2.48362H428.327C432.64 2.48362 436.143 3.76818 438.836 6.3373C441.53 8.90642 442.876 12.1836 442.876 16.1687C442.876 19.3649 441.975 22.1465 440.173 24.5133C438.391 26.8599 435.961 28.4479 432.883 29.2773L444 45.9968H438.168L427.568 29.8538H416.39V45.9968H411.227ZM416.33 25.1809H428.145C431.142 25.1809 433.481 24.3818 435.161 22.7837C436.862 21.1856 437.713 19.0008 437.713 16.2294C437.713 13.4782 436.862 11.3137 435.161 9.73582C433.481 8.1377 431.142 7.33865 428.145 7.33865H416.33V25.1809Z" stroke="white" stroke-width="2" mask="url(#path-1-outside-1_314_4131)"/>
</svg>
