<svg width="32" height="32" viewBox="0 0 32 32" fill="none" xmlns="http://www.w3.org/2000/svg">
<rect x="0.5" y="0.5" width="31" height="31" rx="15.5" fill="white"/>
<path d="M13.5496 21H17.1496C17.7896 21 18.3296 20.78 18.7696 20.34C19.2229 19.8867 19.4496 19.34 19.4496 18.7C19.4496 18.06 19.2229 17.52 18.7696 17.08C18.3296 16.6267 17.7896 16.4 17.1496 16.4H13.5496V21ZM11.3496 23V9H20.5496V11.1H13.5496V14.4H17.1496C18.4429 14.4 19.5163 14.8133 20.3696 15.64C21.2229 16.4667 21.6496 17.4867 21.6496 18.7C21.6496 19.9133 21.2229 20.9333 20.3696 21.76C19.5163 22.5867 18.4429 23 17.1496 23H11.3496Z" fill="#060606"/>
<rect x="0.5" y="0.5" width="31" height="31" rx="15.5" stroke="white" stroke-linecap="square" stroke-dasharray="20 20 20 20"/>
</svg>
