<svg width="59" height="50" viewBox="0 0 59 50" fill="none" xmlns="http://www.w3.org/2000/svg">
<path d="M6.70832 44.5557L3.3234 46.9916H9.59082V48.9601H0.110353V47.2089L4.40764 44.0817L0.110353 40.9414V39.1704H9.59082V41.1389H3.31018L6.70832 43.5946V44.5557ZM9.59082 33.5909L0.110353 33.591V27.3629H1.77638V31.6488H3.98452V27.7118H5.6241V31.6488H7.89836V27.2049H9.59082V33.5909ZM9.59082 19.9532H1.95488V22.771H0.110352V15.167H1.95488V17.9716L9.59082 17.9715V19.9532ZM9.59082 12.2078L0.110352 8.54074V6.3418L9.59082 2.71426V4.76834L7.79258 5.42669V9.46899L9.59082 10.1471V12.2078ZM6.24555 8.97523V5.92703L2.1466 7.43467L6.24555 8.97523Z" fill="white"/>
<path d="M14.584 11.798V2.35721H16.5739V9.94804H20.7125V11.798H14.584ZM24.8543 11.798L28.5368 2.35721H30.7449L34.3877 11.798H32.325L31.6639 10.0073H27.6046L26.9237 11.798H24.8543ZM28.1004 8.46675H31.1614L29.6475 4.38495L28.1004 8.46675ZM39.1708 11.798V2.35721H43.2962C44.1512 2.35721 44.8388 2.58983 45.3589 3.05507C45.8789 3.5203 46.139 4.13258 46.139 4.89188C46.139 5.73018 45.793 6.4017 45.101 6.90647C45.5197 7.13467 45.8503 7.45069 46.0927 7.85451C46.3351 8.25389 46.4563 8.70158 46.4563 9.19754C46.4563 9.96125 46.1809 10.5866 45.6299 11.0738C45.079 11.5566 44.3694 11.798 43.5011 11.798H39.1708ZM41.0947 10.218H43.0979C43.543 10.218 43.8912 10.1105 44.1424 9.8954C44.3936 9.67597 44.5192 9.37529 44.5192 8.99344C44.5192 8.61597 44.3936 8.31973 44.1424 8.10467C43.8912 7.88962 43.543 7.78209 43.0979 7.78209H41.0947V10.218ZM41.0947 6.25467H42.959C43.3557 6.25467 43.6686 6.14934 43.8978 5.93866C44.1314 5.72799 44.2482 5.4471 44.2482 5.09597C44.2482 4.74485 44.1314 4.46395 43.8978 4.25328C43.6686 4.0426 43.3557 3.93726 42.959 3.93726H41.0947V6.25467Z" fill="white"/>
</svg>
